<svg width="14" height="14" viewBox="0 0 14 14" fill="none" xmlns="http://www.w3.org/2000/svg">
<path d="M2.4065 0.203003L1.7025 0.906003L2.75 1.953L3.453 1.25L2.4065 0.203003ZM11.594 0.203003L10.5465 1.25L11.25 1.953L12.297 0.906503L11.594 0.203003ZM7 0.515003C6.835 0.516336 6.66833 0.527003 6.5 0.547003H6.485C4.457 0.779503 2.843 2.418 2.5625 4.437C2.3385 6.062 3.0085 7.5355 4.125 8.4845C4.58164 8.87433 4.89054 9.40916 5 9.9995V12.9995H6.14C6.314 13.298 6.6315 13.4995 7 13.4995C7.3685 13.4995 7.686 13.298 7.86 12.9995H9V10.9995H9.047V10.4055C9.047 9.6725 9.428 8.9335 10.047 8.359C10.875 7.53 11.5 6.3525 11.5 5C11.5 2.53 9.467 0.492003 7 0.515003ZM7 1.515C8.9325 1.488 10.5 3.07 10.5 5C10.5 6.047 10.015 6.969 9.3435 7.64L9.3595 7.656C8.69246 8.27156 8.26101 9.10051 8.1395 10H5.9525C5.8425 9.143 5.475 8.3135 4.7805 7.7185C3.897 6.9685 3.3705 5.8385 3.5465 4.5625C3.765 2.9875 5.043 1.721 6.609 1.5475C6.7383 1.52957 6.86851 1.51889 6.999 1.5155L7 1.515ZM0 5V6H1.5V5H0ZM12.5 5V6H14V5H12.5ZM2.75 9.047L1.703 10.0935L2.4065 10.797L3.4525 9.75L2.75 9.047ZM11.25 9.047L10.547 9.75L11.5935 10.797L12.297 10.0935L11.25 9.047ZM6 11H8V12H6V11Z" fill="#007BFF"/>
</svg>
